<svg width="1440" height="770" viewBox="0 0 1440 770" fill="none" xmlns="http://www.w3.org/2000/svg">
<g opacity="0.6">
<path opacity="0.01" d="M872.464 -123.659L527.604 646.017L19.3801 41.2564L872.464 -123.659Z" stroke="#FF3895" stroke-width="0.558607"/>
<path opacity="0.076" d="M828.777 -64.1967L372.145 537.525L9.44828 16.5206L828.777 -64.1967Z" stroke="#F8439E" stroke-width="1.71306"/>
<path opacity="0.142" d="M766.699 -20.3997L252.527 437.893L9.6662 -12.8756L766.699 -20.3997Z" stroke="#F14CA7" stroke-width="2.86752"/>
<path opacity="0.208" d="M685.387 -3.06969L175.23 371.768L20.5279 -46.8205L685.387 -3.06969Z" stroke="#E954AF" stroke-width="4.02197"/>
<path opacity="0.274" d="M601.362 0.907794L117.334 311.533L36.6081 -80.3571L601.362 0.907794Z" stroke="#E15CB7" stroke-width="5.17643"/>
<path opacity="0.34" d="M504.014 2.52503L91.3732 247.21L70.6824 -121.589L504.014 2.52503Z" stroke="#D962BF" stroke-width="6.33088"/>
<path opacity="0.406" d="M448.121 -5.30305L32.1483 154.42L81.7621 -127.825L448.121 -5.30305Z" stroke="#D169C6" stroke-width="7.48534"/>
<path opacity="0.472" d="M402.456 -3.56563L1.91128 101.518L72.6507 -201.145L402.456 -3.56563Z" stroke="#C86FCD" stroke-width="8.63979"/>
<path opacity="0.538" d="M397.772 -12.9585L-70.5863 44.3316L54.8995 -251.648L397.772 -12.9585Z" stroke="#BF75D4" stroke-width="9.79425"/>
<path opacity="0.604" d="M362.812 -27.0211L-85.8024 -8.95914L72.4458 -296.132L362.812 -27.0211Z" stroke="#B57ADB" stroke-width="10.9487"/>
<path opacity="0.67" d="M314.989 -43.3757L-56.5745 -42.3184L103.424 -351.221L314.989 -43.3757Z" stroke="#AB7FE1" stroke-width="12.1032"/>
<path opacity="0.736" d="M287.473 -62.7501L-31.8316 -86.9442L129.747 -380.325L287.473 -62.7501Z" stroke="#A085E8" stroke-width="13.2576"/>
<path opacity="0.802" d="M297.446 -60.6177L-51.1072 -139.312L155.062 -432.387L297.446 -60.6177Z" stroke="#9589EE" stroke-width="14.4121"/>
<path opacity="0.868" d="M315.338 -54.6873L-70.2015 -208.546L192.053 -459.622L315.338 -54.6873Z" stroke="#888EF4" stroke-width="15.5665"/>
<path opacity="0.934" d="M310.633 -77.2932L-44.8579 -247.682L254.514 -441.539L310.633 -77.2932Z" stroke="#7B93F9" stroke-width="16.721"/>
</g>
</svg>
