<svg width="48" height="48" viewBox="0 0 48 48" fill="none" xmlns="http://www.w3.org/2000/svg">
<path d="M20.2086 20.1975C14.7128 20.1975 10.2417 15.7265 10.2417 10.2306C10.2417 4.73479 14.7128 0.263733 20.2086 0.263733C25.7044 0.263733 30.1755 4.73479 30.1755 10.2306C30.1755 15.7265 25.7044 20.1975 20.2086 20.1975ZM20.2086 2.37123C15.8745 2.37123 12.3492 5.89708 12.3492 10.2306C12.3492 14.5647 15.875 18.09 20.2086 18.09C24.5421 18.09 28.068 14.5642 28.068 10.2306C28.068 5.89708 24.5427 2.37123 20.2086 2.37123Z" fill="white"/>
<path d="M40.5602 30.4921H37.2504C37.1007 30.4921 36.979 30.371 36.979 30.2208V30.0438C36.979 28.7924 35.9611 27.774 34.7098 27.774H34.5048C33.0127 24.5179 30.469 21.8493 27.2498 20.2249C26.9173 20.0574 26.5211 20.0779 26.2081 20.2771C24.4062 21.4262 22.3319 22.0332 20.2081 22.0332C18.0848 22.0332 16.0099 21.4257 14.208 20.2771C13.8945 20.0774 13.4989 20.0574 13.1669 20.2249C7.80808 22.9299 4.47876 28.314 4.47876 34.2777V44.7794C4.47876 46.38 5.78119 47.6825 7.38237 47.6825H21.8978H40.5602C42.163 47.6825 43.4675 46.3779 43.4675 44.7752V33.3994C43.4675 31.7967 42.163 30.4921 40.5602 30.4921ZM6.58626 44.7789V34.2777C6.58626 29.3056 9.26226 24.7977 13.6079 22.3772C15.6211 23.5337 17.8898 24.1417 20.2086 24.1417C22.5274 24.1417 24.7961 23.5337 26.8088 22.3772C29.0738 23.6412 30.9163 25.5179 32.1529 27.7745H27.7477C26.4963 27.7745 25.4779 28.793 25.4779 30.0443V30.2213C25.4779 30.371 25.3567 30.4927 25.2071 30.4927H21.8972C20.2945 30.4927 18.99 31.7972 18.99 33.4V44.7762C18.99 45.0539 19.0316 45.3216 19.1043 45.576H7.38131C6.94348 45.575 6.58626 45.2178 6.58626 44.7789ZM41.36 44.7752C41.36 45.2162 41.0012 45.575 40.5602 45.575H21.8983C21.4573 45.575 21.0985 45.2162 21.0985 44.7752V33.3994C21.0985 32.9584 21.4573 32.5996 21.8983 32.5996H25.2081C26.5195 32.5996 27.5864 31.5327 27.5864 30.2208V30.0438C27.5864 29.9542 27.6592 29.8815 27.7487 29.8815H34.7108C34.7999 29.8815 34.8726 29.9542 34.8726 30.0438V30.2208C34.8726 31.5322 35.9395 32.5996 37.2514 32.5996H40.5613C41.0023 32.5996 41.3611 32.9584 41.3611 33.3994V44.7752H41.36Z" fill="white"/>
<path d="M31.2288 44.6603C27.9975 44.6603 25.3684 42.0312 25.3684 38.7999C25.3684 35.568 27.9975 32.9389 31.2288 32.9389C34.4607 32.9389 37.0898 35.568 37.0898 38.7999C37.0903 42.0307 34.4607 44.6603 31.2288 44.6603ZM31.2288 35.0464C29.1593 35.0464 27.4759 36.7303 27.4759 38.7999C27.4759 40.8695 29.1593 42.5528 31.2288 42.5528C33.2984 42.5528 34.9823 40.8695 34.9823 38.7999C34.9823 36.7303 33.2984 35.0464 31.2288 35.0464Z" fill="white"/>
<path d="M38.605 36.1239C39.2164 36.1239 39.712 35.6283 39.712 35.0169C39.712 34.4056 39.2164 33.91 38.605 33.91C37.9937 33.91 37.498 34.4056 37.498 35.0169C37.498 35.6283 37.9937 36.1239 38.605 36.1239Z" fill="white"/>
</svg>
