<svg width="48" height="48" viewBox="0 0 48 48" fill="none" xmlns="http://www.w3.org/2000/svg">
<path d="M20.2086 20.1975C14.7128 20.1975 10.2417 15.7265 10.2417 10.2306C10.2417 4.73479 14.7128 0.263733 20.2086 0.263733C25.7044 0.263733 30.1755 4.73479 30.1755 10.2306C30.1755 15.7265 25.7044 20.1975 20.2086 20.1975ZM20.2086 2.37123C15.8745 2.37123 12.3492 5.89708 12.3492 10.2306C12.3492 14.5647 15.875 18.09 20.2086 18.09C24.5421 18.09 28.068 14.5642 28.068 10.2306C28.068 5.89708 24.5427 2.37123 20.2086 2.37123Z" fill="#FE3B96"/>
<path d="M40.56 30.4921H37.2501C37.1005 30.4921 36.9788 30.3709 36.9788 30.2208V30.0438C36.9788 28.7924 35.9609 27.774 34.7095 27.774H34.5046C33.0125 24.5179 30.4687 21.8493 27.2495 20.2249C26.9171 20.0574 26.5209 20.0779 26.2079 20.2771C24.406 21.4262 22.3317 22.0331 20.2078 22.0331C18.0845 22.0331 16.0097 21.4257 14.2078 20.2771C13.8943 20.0774 13.4986 20.0574 13.1667 20.2249C7.80784 22.9299 4.47852 28.314 4.47852 34.2777V44.7794C4.47852 46.38 5.78095 47.6825 7.38212 47.6825H21.8975H40.56C42.1627 47.6825 43.4673 46.3779 43.4673 44.7752V33.3994C43.4673 31.7967 42.1627 30.4921 40.56 30.4921ZM6.58602 44.7789V34.2777C6.58602 29.3056 9.26201 24.7977 13.6077 22.3772C15.6209 23.5337 17.8896 24.1417 20.2084 24.1417C22.5271 24.1417 24.7959 23.5337 26.8085 22.3772C29.0736 23.6412 30.9161 25.5179 32.1526 27.7745H27.7474C26.4961 27.7745 25.4776 28.793 25.4776 30.0443V30.2213C25.4776 30.3709 25.3565 30.4927 25.2068 30.4927H21.897C20.2943 30.4927 18.9897 31.7972 18.9897 33.3999V44.7762C18.9897 45.0539 19.0313 45.3215 19.104 45.576H7.38107C6.94324 45.575 6.58602 45.2178 6.58602 44.7789ZM41.3598 44.7752C41.3598 45.2162 41.001 45.575 40.56 45.575H21.8981C21.4571 45.575 21.0983 45.2162 21.0983 44.7752V33.3994C21.0983 32.9584 21.4571 32.5996 21.8981 32.5996H25.2079C26.5193 32.5996 27.5862 31.5327 27.5862 30.2208V30.0438C27.5862 29.9542 27.6589 29.8815 27.7485 29.8815H34.7106C34.7996 29.8815 34.8724 29.9542 34.8724 30.0438V30.2208C34.8724 31.5322 35.9393 32.5996 37.2512 32.5996H40.561C41.002 32.5996 41.3608 32.9584 41.3608 33.3994V44.7752H41.3598Z" fill="#FE3B96"/>
<path d="M31.2286 44.6603C27.9973 44.6603 25.3682 42.0312 25.3682 38.7999C25.3682 35.568 27.9973 32.9389 31.2286 32.9389C34.4604 32.9389 37.0896 35.568 37.0896 38.7999C37.0901 42.0307 34.4604 44.6603 31.2286 44.6603ZM31.2286 35.0464C29.159 35.0464 27.4757 36.7303 27.4757 38.7999C27.4757 40.8695 29.159 42.5528 31.2286 42.5528C33.2982 42.5528 34.982 40.8695 34.982 38.7999C34.982 36.7303 33.2982 35.0464 31.2286 35.0464Z" fill="#FE3B96"/>
<path d="M38.6045 36.1239C39.2159 36.1239 39.7115 35.6283 39.7115 35.0169C39.7115 34.4056 39.2159 33.91 38.6045 33.91C37.9932 33.91 37.4976 34.4056 37.4976 35.0169C37.4976 35.6283 37.9932 36.1239 38.6045 36.1239Z" fill="#FE3B96"/>
</svg>
