<svg width="48" height="48" viewBox="0 0 48 48" fill="none" xmlns="http://www.w3.org/2000/svg">
<path d="M37 7.5H17C15.5413 7.5 14.1424 8.07946 13.1109 9.11091C12.0795 10.1424 11.5 11.5413 11.5 13V13.5H11C9.54131 13.5 8.14236 14.0795 7.11091 15.1109C6.07946 16.1424 5.5 17.5413 5.5 19V35C5.5 36.4587 6.07946 37.8576 7.11091 38.8891C8.14236 39.9205 9.54131 40.5 11 40.5H31C32.4587 40.5 33.8576 39.9205 34.8891 38.8891C35.9205 37.8576 36.5 36.4587 36.5 35V34.5H37C38.4587 34.5 39.8576 33.9205 40.8891 32.8891C41.9205 31.8576 42.5 30.4587 42.5 29V13C42.5 11.5413 41.9205 10.1424 40.8891 9.11091C39.8576 8.07946 38.4587 7.5 37 7.5ZM14.5 13C14.5 12.337 14.7634 11.7011 15.2322 11.2322C15.7011 10.7634 16.337 10.5 17 10.5H37C37.663 10.5 38.2989 10.7634 38.7678 11.2322C39.2366 11.7011 39.5 12.337 39.5 13V25.4L34.96 21.58C34.8121 21.4515 34.6402 21.3536 34.4543 21.292C34.2683 21.2304 34.0719 21.2063 33.8766 21.2212C33.6812 21.2361 33.4908 21.2896 33.3163 21.3787C33.1418 21.4677 32.9867 21.5905 32.86 21.74L30.72 24.26L22.72 16.5C22.5921 16.3475 22.4332 16.2241 22.2539 16.1379C22.0746 16.0516 21.8789 16.0046 21.68 16C21.4739 16.0078 21.2716 16.058 21.0858 16.1474C20.9 16.2369 20.7346 16.3637 20.6 16.52L14.5 23.78V13ZM17 31.5C16.337 31.5 15.7011 31.2366 15.2322 30.7678C14.7634 30.2989 14.5 29.663 14.5 29V28.4L21.84 19.76L28.76 26.54L24.56 31.5H17ZM33.5 35C33.5 35.663 33.2366 36.2989 32.7678 36.7678C32.2989 37.2366 31.663 37.5 31 37.5H11C10.337 37.5 9.70107 37.2366 9.23223 36.7678C8.76339 36.2989 8.5 35.663 8.5 35V19C8.5 18.337 8.76339 17.7011 9.23223 17.2322C9.70107 16.7634 10.337 16.5 11 16.5H11.5V29C11.5 30.4587 12.0795 31.8576 13.1109 32.8891C14.1424 33.9205 15.5413 34.5 17 34.5H33.5V35ZM37 31.5H28.5L34.18 24.82L39.44 29.28C39.3805 29.8866 39.098 30.4494 38.6473 30.8596C38.1965 31.2697 37.6095 31.498 37 31.5Z" fill="#FE3B96"/>
</svg>
