<svg width="48" height="48" viewBox="0 0 48 48" fill="none" xmlns="http://www.w3.org/2000/svg">
<path d="M33.756 47.6888C29.0837 47.6888 23.2602 46.0692 18.7143 43.3236C18.3987 43.1329 18.2053 42.791 18.2053 42.4222V39.5454C18.2053 38.9638 18.6769 38.4922 19.2585 38.4922C19.8402 38.4922 20.3118 38.9638 20.3118 39.5454V41.8199C26.2797 45.2394 33.4873 46.222 37.1523 45.1714C38.1955 44.8721 38.892 44.4274 39.1665 43.8858C39.1918 43.8363 39.2208 43.7889 39.2529 43.7441C39.6987 43.1271 39.6549 42.134 39.1138 40.6176C38.8346 39.7114 39.2814 39.067 40.4279 38.6582C40.1839 38.5375 39.8072 38.4116 39.5696 38.3326C39.206 38.2114 38.8293 38.0855 38.4763 37.909C38.0495 37.695 37.8193 37.2209 37.9168 36.7525C38.0142 36.2851 38.4136 35.9405 38.891 35.9153C39.7276 35.8699 40.5227 35.6529 40.9157 35.4685C40.8883 35.4137 40.8604 35.3562 40.8309 35.2983C40.3746 34.381 39.8578 33.3409 40.3288 32.4816C40.4642 32.2345 40.7977 31.8088 41.5095 31.7329C42.2724 31.6302 43.0707 31.1449 43.3046 30.8673C43.1228 30.5791 42.5717 29.9689 42.1565 29.5106C40.6802 27.8783 38.6586 25.6433 38.6075 23.1802C38.5269 16.9794 37.6386 12.8998 35.637 9.53041C32.8103 5.14523 27.5394 2.50612 21.4198 2.38125V9.76066H24.7444C25.326 9.76066 25.7976 10.2322 25.7976 10.8139C25.7976 11.3956 25.326 11.8671 24.7444 11.8671H20.366C19.7844 11.8671 19.3128 11.3956 19.3128 10.8139V1.33119C19.3128 0.759526 19.7686 0.292715 20.3397 0.277963C27.6432 0.0998788 34.0226 3.13784 37.4289 8.42082C39.6528 12.1627 40.6297 16.5563 40.7155 23.1438C40.7498 24.8124 42.4669 26.7102 43.7208 28.0959C44.6544 29.1286 45.2719 29.8109 45.4163 30.5185C45.4922 30.8552 45.4974 31.4068 45.0723 32.018C44.5096 32.8257 43.4031 33.42 42.4031 33.6918C42.5059 33.93 42.637 34.1945 42.7192 34.3589C42.852 34.6265 42.9727 34.8731 43.0491 35.0675C43.057 35.0875 43.0638 35.1076 43.0707 35.1281C43.2277 35.6144 43.1518 36.1171 42.8578 36.5454C42.6639 36.8278 42.381 37.057 42.0559 37.2425C42.4937 37.6339 42.8009 38.1813 42.764 38.9748C42.7066 39.979 41.8583 40.3774 41.3209 40.5765C41.7108 41.8684 41.9547 43.5391 41.0085 44.9106C40.4421 45.9659 39.3414 46.7346 37.7339 47.1956C36.5717 47.5297 35.2202 47.6888 33.756 47.6888ZM41.7814 33.8209C41.7751 33.8215 41.7693 33.8225 41.7624 33.8236C41.7688 33.823 41.7751 33.822 41.7814 33.8209Z" fill="white"/>
<path d="M23.4738 17.855H12.0332C11.4515 17.855 10.98 17.3835 10.98 16.8018V9.93242C10.98 9.35075 11.4515 8.8792 12.0332 8.8792C12.6149 8.8792 13.0864 9.35075 13.0864 9.93242V15.7481H23.4738C24.0554 15.7481 24.527 16.2196 24.527 16.8013C24.527 17.383 24.0554 17.855 23.4738 17.855Z" fill="white"/>
<path d="M10.2031 34.3752C9.62146 34.3752 9.1499 33.9036 9.1499 33.322V29.3172C9.1499 28.7355 9.62146 28.264 10.2031 28.264H23.8687C24.4504 28.264 24.9219 28.7355 24.9219 29.3172C24.9219 29.8989 24.4504 30.3704 23.8687 30.3704H11.2569V33.3214C11.2569 33.9036 10.7853 34.3752 10.2031 34.3752Z" fill="white"/>
<path d="M26.4443 24.3562H8.40723C7.82556 24.3562 7.354 23.8846 7.354 23.3029C7.354 22.7213 7.82556 22.2497 8.40723 22.2497H26.4443C27.0259 22.2497 27.4975 22.7213 27.4975 23.3029C27.498 23.8846 27.0259 24.3562 26.4443 24.3562Z" fill="white"/>
<path d="M33.8184 24.3562H30.8484C30.2667 24.3562 29.7952 23.8846 29.7952 23.3029C29.7952 22.7213 30.2667 22.2497 30.8484 22.2497H33.8184C34.4001 22.2497 34.8716 22.7213 34.8716 23.3029C34.8721 23.8846 34.4006 24.3562 33.8184 24.3562Z" fill="white"/>
<path d="M12.0331 10.9862C10.1121 10.9862 8.54883 9.42346 8.54883 7.50195C8.54883 5.58043 10.1115 4.01772 12.0331 4.01772C13.954 4.01772 15.5173 5.58043 15.5173 7.50195C15.5173 9.42346 13.9546 10.9862 12.0331 10.9862ZM12.0331 6.12522C11.2738 6.12522 10.6558 6.74325 10.6558 7.50247C10.6558 8.2617 11.2738 8.87973 12.0331 8.87973C12.7928 8.87973 13.4103 8.2617 13.4103 7.50247C13.4103 6.74325 12.7928 6.12522 12.0331 6.12522Z" fill="white"/>
<path d="M27.3883 14.0868C25.4673 14.0868 23.9041 12.5241 23.9041 10.6026C23.9041 8.68162 25.4668 7.11838 27.3883 7.11838C29.3098 7.11838 30.8725 8.68109 30.8725 10.6026C30.8725 12.5241 29.3093 14.0868 27.3883 14.0868ZM27.3883 9.22588C26.629 9.22588 26.011 9.8439 26.011 10.6031C26.011 11.3624 26.629 11.9804 27.3883 11.9804C28.148 11.9804 28.7661 11.3624 28.7661 10.6031C28.7655 9.84338 28.148 9.22588 27.3883 9.22588Z" fill="white"/>
<path d="M5.97666 26.7866C4.05567 26.7866 2.49243 25.2239 2.49243 23.3024C2.49243 21.3809 4.05514 19.8182 5.97666 19.8182C7.89764 19.8182 9.46088 21.3809 9.46088 23.3024C9.46088 25.2239 7.89764 26.7866 5.97666 26.7866ZM5.97666 21.9257C5.2169 21.9257 4.5994 22.5437 4.5994 23.3029C4.5994 24.0622 5.21743 24.6802 5.97666 24.6802C6.73588 24.6802 7.35391 24.0622 7.35391 23.3029C7.35338 22.5432 6.73588 21.9257 5.97666 21.9257Z" fill="white"/>
<path d="M10.2032 39.2362C8.28223 39.2362 6.71899 37.6734 6.71899 35.7519C6.71899 33.8309 8.28223 32.2677 10.2032 32.2677C12.1242 32.2677 13.6874 33.8304 13.6874 35.7519C13.6874 37.6734 12.1247 39.2362 10.2032 39.2362ZM10.2032 34.3752C9.44399 34.3752 8.82597 34.9932 8.82597 35.7525C8.82597 36.5117 9.44399 37.1297 10.2032 37.1297C10.963 37.1297 11.5805 36.5117 11.5805 35.7525C11.5805 34.9932 10.963 34.3752 10.2032 34.3752Z" fill="white"/>
<path d="M19.2591 40.5987C17.3381 40.5987 15.7749 39.0359 15.7749 37.1144C15.7749 35.1934 17.3376 33.6302 19.2591 33.6302C21.1801 33.6302 22.7434 35.1934 22.7434 37.1144C22.7434 39.0359 21.1801 40.5987 19.2591 40.5987ZM19.2591 35.7372C18.4994 35.7372 17.8819 36.3552 17.8819 37.115C17.8819 37.8742 18.4999 38.4922 19.2591 38.4922C20.0184 38.4922 20.6364 37.8742 20.6364 37.115C20.6364 36.3552 20.0184 35.7372 19.2591 35.7372Z" fill="white"/>
</svg>
