<svg width="44" height="48" viewBox="0 0 44 48" fill="none" xmlns="http://www.w3.org/2000/svg">
<path d="M31.7558 47.6888C27.0835 47.6888 21.2599 46.0692 16.714 43.3236C16.3984 43.1329 16.2051 42.791 16.2051 42.4222V39.5454C16.2051 38.9637 16.6766 38.4922 17.2583 38.4922C17.84 38.4922 18.3115 38.9637 18.3115 39.5454V41.8199C24.2794 45.2394 31.4871 46.222 35.152 45.1714C36.1952 44.8721 36.8918 44.4274 37.1663 43.8858C37.1916 43.8363 37.2205 43.7889 37.2527 43.7441C37.6984 43.1271 37.6547 42.134 37.1136 40.6176C36.8343 39.7114 37.2811 39.067 38.4276 38.6582C38.1837 38.5375 37.807 38.4116 37.5693 38.3326C37.2058 38.2114 36.8291 38.0854 36.4761 37.9089C36.0493 37.695 35.8191 37.2208 35.9165 36.7525C36.014 36.2851 36.4134 35.9405 36.8907 35.9152C37.7274 35.8699 38.5224 35.6529 38.9155 35.4685C38.8881 35.4137 38.8602 35.3562 38.8307 35.2983C38.3744 34.381 37.8575 33.3409 38.3286 32.4816C38.464 32.2345 38.7975 31.8088 39.5093 31.7329C40.2722 31.6302 41.0704 31.1449 41.3043 30.8673C41.1226 30.5791 40.5715 29.9689 40.1563 29.5106C38.68 27.8783 36.6584 25.6433 36.6073 23.1802C36.5266 16.9794 35.6383 12.8998 33.6367 9.53041C30.8101 5.14523 25.5392 2.50611 19.4195 2.38124V9.76065H22.7441C23.3258 9.76065 23.7973 10.2322 23.7973 10.8139C23.7973 11.3955 23.3258 11.8671 22.7441 11.8671H18.3658C17.7841 11.8671 17.3126 11.3955 17.3126 10.8139V1.33118C17.3126 0.759519 17.7683 0.292707 18.3394 0.277955C25.643 0.0998712 32.0224 3.13783 35.4286 8.42081C37.6526 12.1627 38.6294 16.5563 38.7153 23.1438C38.7495 24.8124 40.4666 26.7102 41.7206 28.0959C42.6542 29.1286 43.2717 29.8109 43.4161 30.5185C43.4919 30.8551 43.4972 31.4068 43.072 32.018C42.5093 32.8257 41.4029 33.42 40.4029 33.6918C40.5056 33.93 40.6368 34.1945 40.719 34.3589C40.8518 34.6265 40.9724 34.8731 41.0488 35.0675C41.0567 35.0875 41.0636 35.1075 41.0704 35.1281C41.2274 35.6144 41.1516 36.117 40.8576 36.5454C40.6637 36.8278 40.3807 37.057 40.0557 37.2424C40.4935 37.6339 40.8007 38.1813 40.7638 38.9748C40.7063 39.979 39.8581 40.3774 39.3207 40.5765C39.7106 41.8684 39.9545 43.5391 39.0082 44.9106C38.4418 45.9659 37.3412 46.7346 35.7337 47.1956C34.5714 47.5297 33.22 47.6888 31.7558 47.6888ZM39.7812 33.8209C39.7748 33.8214 39.769 33.8225 39.7622 33.8236C39.7685 33.823 39.7748 33.822 39.7812 33.8209Z" fill="#FE3B96"/>
<path d="M21.4733 17.855H10.0327C9.45104 17.855 8.97949 17.3835 8.97949 16.8018V9.9324C8.97949 9.35073 9.45104 8.87918 10.0327 8.87918C10.6144 8.87918 11.0859 9.35073 11.0859 9.9324V15.7481H21.4733C22.0549 15.7481 22.5265 16.2196 22.5265 16.8013C22.5265 17.3829 22.0549 17.855 21.4733 17.855Z" fill="#FE3B96"/>
<path d="M8.20313 34.3752C7.62146 34.3752 7.1499 33.9036 7.1499 33.322V29.3172C7.1499 28.7355 7.62146 28.264 8.20313 28.264H21.8687C22.4504 28.264 22.9219 28.7355 22.9219 29.3172C22.9219 29.8989 22.4504 30.3704 21.8687 30.3704H9.25688V33.3214C9.25688 33.9036 8.78532 34.3752 8.20313 34.3752Z" fill="#FE3B96"/>
<path d="M24.4438 24.3561H6.40674C5.82507 24.3561 5.35352 23.8846 5.35352 23.3029C5.35352 22.7212 5.82507 22.2497 6.40674 22.2497H24.4438C25.0254 22.2497 25.497 22.7212 25.497 23.3029C25.4975 23.8846 25.0254 24.3561 24.4438 24.3561Z" fill="#FE3B96"/>
<path d="M31.8181 24.3561H28.8481C28.2665 24.3561 27.7949 23.8846 27.7949 23.3029C27.7949 22.7212 28.2665 22.2497 28.8481 22.2497H31.8181C32.3998 22.2497 32.8714 22.7212 32.8714 23.3029C32.8719 23.8846 32.4003 24.3561 31.8181 24.3561Z" fill="#FE3B96"/>
<path d="M10.0331 10.9861C8.11207 10.9861 6.54883 9.42344 6.54883 7.50192C6.54883 5.58041 8.11154 4.0177 10.0331 4.0177C11.954 4.0177 13.5173 5.58041 13.5173 7.50192C13.5173 9.42344 11.9546 10.9861 10.0331 10.9861ZM10.0331 6.1252C9.27383 6.1252 8.6558 6.74322 8.6558 7.50245C8.6558 8.26168 9.27383 8.8797 10.0331 8.8797C10.7928 8.8797 11.4103 8.26168 11.4103 7.50245C11.4103 6.74322 10.7928 6.1252 10.0331 6.1252Z" fill="#FE3B96"/>
<path d="M25.388 14.0868C23.467 14.0868 21.9038 12.5241 21.9038 10.6026C21.9038 8.68162 23.4665 7.11838 25.388 7.11838C27.3095 7.11838 28.8723 8.68109 28.8723 10.6026C28.8723 12.5241 27.309 14.0868 25.388 14.0868ZM25.388 9.22588C24.6288 9.22588 24.0108 9.8439 24.0108 10.6031C24.0108 11.3624 24.6288 11.9804 25.388 11.9804C26.1478 11.9804 26.7658 11.3624 26.7658 10.6031C26.7653 9.84338 26.1478 9.22588 25.388 9.22588Z" fill="#FE3B96"/>
<path d="M3.97641 26.7866C2.05543 26.7866 0.492188 25.2239 0.492188 23.3024C0.492188 21.3809 2.0549 19.8182 3.97641 19.8182C5.8974 19.8182 7.46064 21.3809 7.46064 23.3024C7.46064 25.2239 5.8974 26.7866 3.97641 26.7866ZM3.97641 21.9257C3.21666 21.9257 2.59916 22.5437 2.59916 23.3029C2.59916 24.0622 3.21719 24.6802 3.97641 24.6802C4.73564 24.6802 5.35366 24.0622 5.35366 23.3029C5.35314 22.5432 4.73564 21.9257 3.97641 21.9257Z" fill="#FE3B96"/>
<path d="M8.20297 39.2362C6.28199 39.2362 4.71875 37.6734 4.71875 35.7519C4.71875 33.8309 6.28199 32.2677 8.20297 32.2677C10.124 32.2677 11.6872 33.8304 11.6872 35.7519C11.6872 37.6734 10.1245 39.2362 8.20297 39.2362ZM8.20297 34.3752C7.44375 34.3752 6.82572 34.9932 6.82572 35.7525C6.82572 36.5117 7.44375 37.1297 8.20297 37.1297C8.96273 37.1297 9.58023 36.5117 9.58023 35.7525C9.58023 34.9932 8.96273 34.3752 8.20297 34.3752Z" fill="#FE3B96"/>
<path d="M17.2591 40.5986C15.3381 40.5986 13.7749 39.0359 13.7749 37.1144C13.7749 35.1934 15.3376 33.6302 17.2591 33.6302C19.1801 33.6302 20.7434 35.1934 20.7434 37.1144C20.7434 39.0359 19.1801 40.5986 17.2591 40.5986ZM17.2591 35.7372C16.4994 35.7372 15.8819 36.3552 15.8819 37.1149C15.8819 37.8742 16.4999 38.4922 17.2591 38.4922C18.0184 38.4922 18.6364 37.8742 18.6364 37.1149C18.6364 36.3552 18.0184 35.7372 17.2591 35.7372Z" fill="#FE3B96"/>
</svg>
