<svg width="128" height="177" viewBox="0 0 128 177" fill="none" xmlns="http://www.w3.org/2000/svg">
<circle cx="59.5" cy="2.5" r="2.5" fill="#FBFBFB"/>
<circle cx="125.5" cy="83.5" r="2.5" fill="#FBFBFB"/>
<circle cx="125.5" cy="113.5" r="2.5" fill="#FBFBFB"/>
<circle cx="84.5" cy="174.5" r="2.5" fill="#FBFBFB"/>
<circle cx="39.5" cy="174.5" r="2.5" fill="#FBFBFB"/>
<circle cx="2.5" cy="118.5" r="2.5" fill="#FBFBFB"/>
<circle cx="2.5" cy="85.5" r="2.5" fill="#FBFBFB"/>
<circle cx="11.5" cy="37.5" r="2.5" fill="#FBFBFB"/>
<circle cx="12" cy="30" r="2" fill="#FBFBFB"/>
<path d="M57.5 2L57.5605 1.90217L57.5007 1.86522L57.4405 1.90158L57.5 2ZM12 29.5L11.9405 29.4016L11.6375 29.5847L11.9903 29.6146L12 29.5ZM106.5 37.5L106.606 37.4565L106.58 37.3913L106.51 37.3854L106.5 37.5ZM125.5 84H125.615V83.9774L125.606 83.9565L125.5 84ZM125.5 115L125.594 115.066L125.615 115.036V115H125.5ZM84.5 174V174.115H84.5601L84.5944 174.066L84.5 174ZM39 174L38.9038 174.063L38.9378 174.115H39V174ZM3 119H2.885V119.034L2.90378 119.063L3 119ZM3 84L2.8871 83.9781L2.885 83.989V84H3ZM12 37.5L11.9898 37.3855L11.9036 37.3931L11.8871 37.4781L12 37.5ZM102 29.5L102.01 29.6145L102.355 29.5839L102.06 29.4022L102 29.5ZM24.3867 90C24.3867 90.3387 24.6613 90.6133 25 90.6133C25.3387 90.6133 25.6133 90.3387 25.6133 90C25.6133 89.6613 25.3387 89.3867 25 89.3867C24.6613 89.3867 24.3867 89.6613 24.3867 90ZM101.387 90C101.387 90.3387 101.661 90.6133 102 90.6133C102.339 90.6133 102.613 90.3387 102.613 90C102.613 89.6613 102.339 89.3867 102 89.3867C101.661 89.3867 101.387 89.6613 101.387 90ZM57.4405 1.90158L11.9405 29.4016L12.0595 29.5984L57.5595 2.09842L57.4405 1.90158ZM11.9903 29.6146L106.49 37.6146L106.51 37.3854L12.0097 29.3854L11.9903 29.6146ZM106.394 37.5435L125.394 84.0435L125.606 83.9565L106.606 37.4565L106.394 37.5435ZM125.385 84V115H125.615V84H125.385ZM125.406 114.934L84.4056 173.934L84.5944 174.066L125.594 115.066L125.406 114.934ZM84.5 173.885H39V174.115H84.5V173.885ZM39.0962 173.937L3.09622 118.937L2.90378 119.063L38.9038 174.063L39.0962 173.937ZM3.115 119V84H2.885V119H3.115ZM3.1129 84.0219L12.1129 37.5219L11.8871 37.4781L2.8871 83.9781L3.1129 84.0219ZM12.0102 37.6145L102.01 29.6145L101.99 29.3855L11.9898 37.3855L12.0102 37.6145ZM102.06 29.4022L57.5605 1.90217L57.4395 2.09783L101.94 29.5978L102.06 29.4022ZM25 90.115H102V89.885H25V90.115Z" fill="white"/>
</svg>
