<svg width="208" height="325" viewBox="0 0 208 325" fill="none" xmlns="http://www.w3.org/2000/svg">
<path d="M27 285C30.5 250 58.4 173.4 142 147C225.6 120.6 268.833 57.3333 280 29" stroke="#FD59FF"/>
<path d="M1 257C4.5 222 32.4 145.4 116 119C199.6 92.6 242.833 29.3333 254 1" stroke="#FD59FF"/>
<path d="M41 324C44.5 289 72.4 212.4 156 186C239.6 159.6 282.833 96.3333 294 68" stroke="#FD59FF"/>
<path d="M131.123 113.899L120.653 126.593L114.895 111.179L131.123 113.899Z" fill="#D9D9D9"/>
<path d="M217.686 156.309L211.98 171.742L201.467 159.083L217.686 156.309Z" fill="#D9D9D9"/>
</svg>
