<svg width="627" height="1785" viewBox="0 0 627 1785" fill="none" xmlns="http://www.w3.org/2000/svg">
<path opacity="0.01" d="M699.44 334.049L3.46589 254.365L128.305 -185.72L699.44 334.049Z" stroke="#FF3895" stroke-width="0.5"/>
<path opacity="0.076" d="M687.706 303.175L9.52521 156.973L195.618 -248.101L687.706 303.175Z" stroke="#F8439E" stroke-width="1.53333"/>
<path opacity="0.142" d="M680.796 274.467L29.1333 63.9439L267.746 -298.671L680.796 274.467Z" stroke="#F14CA7" stroke-width="2.56667"/>
<path opacity="0.208" d="M678.207 248.388L60.8521 -22.7203L343.011 -337.026L678.207 248.388Z" stroke="#E954AF" stroke-width="3.6"/>
<path opacity="0.274" d="M679.381 225.381L103.05 -101.398L419.664 -363.026L679.381 225.381Z" stroke="#E15CB7" stroke-width="4.63333"/>
<path opacity="0.34" d="M683.716 205.845L153.938 -170.845L495.935 -376.793L683.716 205.845Z" stroke="#D962BF" stroke-width="5.66667"/>
<path opacity="0.406" d="M690.569 190.127L211.613 -230.196L570.082 -378.703L690.569 190.127Z" stroke="#D169C6" stroke-width="6.7"/>
<path opacity="0.472" d="M699.277 178.517L274.096 -278.992L640.426 -369.375L699.277 178.517Z" stroke="#C86FCD" stroke-width="7.73333"/>
<path opacity="0.538" d="M709.17 171.26L339.377 -317.207L705.385 -349.65L709.17 171.26Z" stroke="#BF75D4" stroke-width="8.76667"/>
<path opacity="0.604" d="M716.511 134.122L408.264 -309.326L766.852 -287.637L716.511 134.122Z" stroke="#B57ADB" stroke-width="9.8"/>
<path opacity="0.67" d="M724.412 89.6387L459.454 -272.714L835.396 -212.793L724.412 89.6387Z" stroke="#AB7FE1" stroke-width="10.8333"/>
<path opacity="0.736" d="M732.032 64.2187L524.094 -235.242L877.396 -152.464L732.032 64.2187Z" stroke="#A085E8" stroke-width="11.8667"/>
<path opacity="0.802" d="M738.069 74.1952L568.243 -225.48L925.683 -113.736L738.069 74.1952Z" stroke="#9589EE" stroke-width="12.9"/>
<path opacity="0.868" d="M740.957 86.4043L623.625 -206.296L948.478 -70.911L740.957 86.4043Z" stroke="#888EF4" stroke-width="13.9333"/>
<path opacity="0.934" d="M741.468 99.782L670.853 -179.029L961.023 -24.4586L741.468 99.782Z" stroke="#7B93F9" stroke-width="14.9667"/>
<path d="M739.108 114.007L709.039 -145.18L963.233 23.4923L739.108 114.007Z" stroke="#6B97FF" stroke-width="16"/>
</svg>
