<svg width="584" height="2451" viewBox="0 0 584 2451" fill="none" xmlns="http://www.w3.org/2000/svg">
<path opacity="0.01" d="M-90.1011 193.729L583.803 294.887L244.482 789.824L-90.1011 193.729Z" stroke="#FF3895" stroke-width="0.5"/>
<path opacity="0.076" d="M-89.1864 222.071L544.359 393.725L164.203 828.372L-89.1864 222.071Z" stroke="#F8439E" stroke-width="1.53333"/>
<path opacity="0.142" d="M-92.0831 247.898L494.08 482.153L82.3669 853.996L-92.0831 247.898Z" stroke="#F14CA7" stroke-width="2.56667"/>
<path opacity="0.208" d="M-98.1959 270.748L434.862 559.057L0.852335 866.893L-98.1959 270.748Z" stroke="#E954AF" stroke-width="3.6"/>
<path opacity="0.274" d="M-106.877 290.261L368.705 623.625L-78.5292 867.515L-106.877 290.261Z" stroke="#E15CB7" stroke-width="4.63333"/>
<path opacity="0.34" d="M-117.444 306.186L297.665 675.356L-154.07 856.56L-117.444 306.186Z" stroke="#D962BF" stroke-width="5.66667"/>
<path opacity="0.406" d="M-129.195 318.383L223.815 714.061L-224.199 834.953L-129.195 318.383Z" stroke="#D169C6" stroke-width="6.7"/>
<path opacity="0.472" d="M-141.426 326.823L149.198 739.859L-287.506 803.819L-141.426 326.823Z" stroke="#C86FCD" stroke-width="7.73333"/>
<path opacity="0.538" d="M-153.452 331.585L75.7889 753.172L-342.767 764.46L-153.452 331.585Z" stroke="#BF75D4" stroke-width="8.76667"/>
<path opacity="0.604" d="M-164.401 338.4L8.26149 748.709L-392.213 713.227L-164.401 338.4Z" stroke="#B57ADB" stroke-width="9.8"/>
<path opacity="0.67" d="M-173.765 336.379L-57.676 738.896L-428.853 662.577L-173.765 336.379Z" stroke="#AB7FE1" stroke-width="10.8333"/>
</svg>
