<svg width="386" height="370" viewBox="0 0 386 370" fill="none" xmlns="http://www.w3.org/2000/svg">
<path d="M173 189.25L279.5 136L386 189.25L279.5 242.5L173 189.25Z" fill="#C505FF"/>
<path d="M173 189.25L279.5 242.5V349L173 295.75V189.25Z" fill="#FD59FF"/>
<path d="M279.5 242.5L386 189.25V295.75L279.5 349V242.5Z" fill="#8E00CB"/>
<path d="M0 210.25L106.5 157L213 210.25L106.5 263.5L0 210.25Z" fill="#C505FF"/>
<path d="M0 210.25L106.5 263.5V370L0 316.75V210.25Z" fill="#FD59FF"/>
<path d="M106.5 263.5L213 210.25V316.75L106.5 370V263.5Z" fill="#8E00CB"/>
<path d="M107 53.25L213.5 0L320 53.25L213.5 106.5L107 53.25Z" fill="#C505FF"/>
<path d="M107 53.25L213.5 106.5V213L107 159.75V53.25Z" fill="#FD59FF"/>
<path d="M213.5 106.5L320 53.25V159.75L213.5 213V106.5Z" fill="#8E00CB"/>
</svg>
