<svg width="1280" height="788" viewBox="0 0 1280 788" fill="none" xmlns="http://www.w3.org/2000/svg">
<path opacity="0.01" d="M658.476 -635.14L1270.69 -196.282L880.481 24.5316L658.476 -635.14Z" stroke="#FF3895" stroke-width="0.558607"/>
<path opacity="0.076" d="M652.691 -605.781L1210.58 -109.461L781.071 65.6099L652.691 -605.781Z" stroke="#F8439E" stroke-width="1.71306"/>
<path opacity="0.142" d="M643.697 -580.011L1140.07 -28.2183L683.317 95.1361L643.697 -580.011Z" stroke="#F14CA7" stroke-width="2.86752"/>
<path opacity="0.208" d="M632.284 -558.316L1061.65 46.3271L588.919 113.114L632.284 -558.316Z" stroke="#E954AF" stroke-width="4.02197"/>
<path opacity="0.274" d="M619.319 -541.199L977.793 113.541L499.426 119.8L619.319 -541.199Z" stroke="#E15CB7" stroke-width="5.17643"/>
<path opacity="0.34" d="M606.692 -460.238L889.479 99.1777L415.669 51.9049L606.692 -460.238Z" stroke="#D962BF" stroke-width="6.33088"/>
<path opacity="0.406" d="M592.097 -402.349L772.344 86.2856L371.974 0.228751L592.097 -402.349Z" stroke="#D169C6" stroke-width="7.48534"/>
<path opacity="0.472" d="M575.582 -362.364L690.154 76.2031L309.448 -46.2034L575.582 -362.364Z" stroke="#C86FCD" stroke-width="8.63979"/>
<path opacity="0.538" d="M561.096 -364.086L608.49 96.1239L259.115 -65.6267L561.096 -364.086Z" stroke="#BF75D4" stroke-width="9.79425"/>
<path opacity="0.604" d="M531.771 -340.133L550.22 74.1675L235.786 -118.955L531.771 -340.133Z" stroke="#B57ADB" stroke-width="10.9487"/>
<path opacity="0.67" d="M497.735 -307.395L525.106 30.4224L212.752 -189.956L497.735 -307.395Z" stroke="#AB7FE1" stroke-width="12.1032"/>
</svg>
