        <svg width="37" height="39" viewBox="0 0 37 39" fill="none" xmlns="http://www.w3.org/2000/svg">
                            <rect x="0.5" y="0.5" width="36" height="38" rx="7.5" fill="#1E1E1E"/>
                            <rect x="0.5" y="0.5" width="36" height="38" rx="7.5" stroke="#838181"/>
                            <path d="M9.5 20.5V19.697C9.5 16.729 9.5 15.246 9.969 14.061C10.723 12.156 12.317 10.653 14.339 9.942C15.595 9.5 17.168 9.5 20.318 9.5C22.116 9.5 23.016 9.5 23.734 9.753C24.889 10.159 25.8 11.018 26.231 12.106C26.499 12.783 26.499 13.631 26.499 15.326V20.501" stroke="#838181" stroke-width="1.5" stroke-linecap="round" stroke-linejoin="round"/>
                            <path d="M9.5 19.5C9.5 18.616 9.85115 17.7683 10.4762 17.1432C11.1013 16.5182 11.949 16.167 12.833 16.167C13.499 16.167 14.284 16.284 14.931 16.11C15.2135 16.0341 15.471 15.8853 15.678 15.6786C15.8849 15.4719 16.0339 15.2144 16.11 14.932C16.283 14.285 16.167 13.5 16.167 12.834C16.1669 12.3962 16.253 11.9627 16.4204 11.5582C16.5879 11.1537 16.8333 10.7862 17.1429 10.4766C17.4524 10.167 17.8198 9.92137 18.2243 9.75381C18.6287 9.58624 19.0622 9.5 19.5 9.5M12.856 23.5V27.315C12.856 28.059 12.773 28.854 12.127 29.23C11.8288 29.4022 11.4913 29.4945 11.147 29.498C10.9384 29.5037 10.7312 29.4621 10.541 29.3762C10.3508 29.2902 10.1826 29.1623 10.049 29.002C9.669 28.548 9.539 28.135 9.5 27.477M16.244 29.465V23.5H18.231C18.963 23.5 19.615 24.026 19.641 24.753C19.6463 24.911 19.6463 25.067 19.641 25.221C19.614 25.953 18.959 26.483 18.223 26.483H17M26.5 24.494C26.46 23.685 25.998 23.481 24.5 23.5H23.5C22.948 23.5 22.5 23.945 22.5 24.494V28.471C22.5 29.021 22.948 29.465 23.5 29.465H26C26.276 29.465 26.5 29.243 26.5 28.968V27.477C26.4992 27.3449 26.4462 27.2185 26.3525 27.1254C26.2588 27.0323 26.1321 26.98 26 26.98H25" stroke="#838181" stroke-width="1.5" stroke-linecap="round" stroke-linejoin="round"/>
                            </svg>